# Blender 3.5.0
# www.blender.org
mtllib stopsignscale.mtl
o Cube
v 0.070000 2.500000 -0.070000
v 0.070000 0.000000 -0.070000
v 0.070000 2.500000 0.070000
v 0.070000 0.000000 0.070000
v -0.070000 2.500000 -0.070000
v -0.070000 0.000000 -0.070000
v -0.070000 2.500000 0.070000
v -0.070000 0.000000 0.070000
v 0.174886 2.622105 0.062575
v 0.174886 2.622105 0.122549
v 0.422212 2.374779 0.062575
v 0.422212 2.374779 0.122549
v 0.422212 2.025007 0.062575
v 0.422212 2.025007 0.122549
v 0.174886 1.777682 0.062575
v 0.174886 1.777682 0.122549
v -0.174886 1.777682 0.062575
v -0.174886 1.777682 0.122549
v -0.422212 2.025007 0.062575
v -0.422212 2.025007 0.122549
v -0.422212 2.374779 0.062575
v -0.422212 2.374779 0.122549
v -0.174886 2.622105 0.062575
v -0.174886 2.622105 0.122549
vn -0.0000 1.0000 -0.0000
vn -0.0000 -0.0000 1.0000
vn -1.0000 -0.0000 -0.0000
vn -0.0000 -1.0000 -0.0000
vn 1.0000 -0.0000 -0.0000
vn -0.0000 -0.0000 -1.0000
vn 0.7071 0.7071 -0.0000
vn 0.7071 -0.7071 -0.0000
vn -0.7071 -0.7071 -0.0000
vn -0.7071 0.7071 -0.0000
vt 0.625000 0.500000
vt 0.375000 0.500000
vt 0.625000 0.750000
vt 0.375000 0.750000
vt 0.875000 0.500000
vt 0.625000 0.250000
vt 0.125000 0.500000
vt 0.375000 0.250000
vt 0.875000 0.750000
vt 0.625000 1.000000
vt 0.625000 0.000000
vt 0.375000 0.000000
vt 0.375000 1.000000
vt 0.125000 0.750000
vt 1.000000 0.500000
vt 0.000000 0.500000
vt 0.750000 0.490000
vt 1.000000 1.000000
vt 0.250000 0.490000
vt 0.000000 1.000000
vt 0.875000 0.500000
vt 0.919706 0.419706
vt 0.875000 1.000000
vt 0.419706 0.419706
vt 0.750000 0.500000
vt 0.990000 0.250000
vt 0.750000 1.000000
vt 0.490000 0.250000
vt 0.625000 0.500000
vt 0.919706 0.080294
vt 0.625000 1.000000
vt 0.419706 0.080294
vt 0.500000 0.500000
vt 0.750000 0.010000
vt 0.500000 1.000000
vt 0.250000 0.010000
vt 0.375000 0.500000
vt 0.580294 0.080294
vt 0.375000 1.000000
vt 0.080294 0.080294
vt 0.250000 0.500000
vt 0.510000 0.250000
vt 0.010000 0.250000
vt 0.250000 1.000000
vt 0.125000 0.500000
vt 0.580294 0.419706
vt 0.080294 0.419706
vt 0.125000 1.000000
s 0
usemtl Material
f 5/5/1 3/3/1 1/1/1
f 3/3/2 8/13/2 4/4/2
f 7/11/3 6/8/3 8/12/3
f 2/2/4 8/14/4 6/7/4
f 1/1/5 4/4/5 2/2/5
f 5/6/6 2/2/6 6/8/6
f 10/18/7 11/21/7 9/15/7
f 11/21/5 14/27/5 13/25/5
f 14/27/8 15/29/8 13/25/8
f 16/31/4 17/33/4 15/29/4
f 18/35/9 19/37/9 17/33/9
f 20/39/3 21/41/3 19/37/3
f 14/28/2 10/19/2 22/43/2
f 22/44/10 23/45/10 21/41/10
f 24/48/1 9/16/1 23/45/1
f 21/42/6 23/46/6 15/30/6
f 5/5/1 7/9/1 3/3/1
f 3/3/2 7/10/2 8/13/2
f 7/11/3 5/6/3 6/8/3
f 2/2/4 4/4/4 8/14/4
f 1/1/5 3/3/5 4/4/5
f 5/6/6 1/1/6 2/2/6
f 10/18/7 12/23/7 11/21/7
f 11/21/5 12/23/5 14/27/5
f 14/27/8 16/31/8 15/29/8
f 16/31/4 18/35/4 17/33/4
f 18/35/9 20/39/9 19/37/9
f 20/39/3 22/44/3 21/41/3
f 14/28/2 12/24/2 10/19/2
f 10/19/2 24/47/2 22/43/2
f 22/43/2 20/40/2 18/36/2
f 18/36/2 16/32/2 22/43/2
f 16/32/2 14/28/2 22/43/2
f 22/44/10 24/48/10 23/45/10
f 24/48/1 10/20/1 9/16/1
f 23/46/6 9/17/6 15/30/6
f 9/17/6 11/22/6 15/30/6
f 11/22/6 13/26/6 15/30/6
f 15/30/6 17/34/6 19/38/6
f 19/38/6 21/42/6 15/30/6
