# Blender 3.5.0
# www.blender.org
mtllib stopsign.mtl
o Cube
v 0.241455 6.037162 -0.241455
v 0.241455 -0.241455 -0.241455
v 0.241455 6.037162 0.241455
v 0.241455 -0.241455 0.241455
v -0.241455 6.037162 -0.241455
v -0.241455 -0.241455 -0.241455
v -0.241455 6.037162 0.241455
v -0.241455 -0.241455 0.241455
v 0.233183 6.585768 -1.339928
v 0.488631 6.585768 -1.339928
v 0.233183 5.475735 -1.339928
v 0.488631 5.475735 -1.339928
v 0.233183 4.690824 -0.555016
v 0.488631 4.690824 -0.555016
v 0.233183 4.690824 0.555016
v 0.488631 4.690824 0.555016
v 0.233183 5.475735 1.339928
v 0.488631 5.475735 1.339928
v 0.233183 6.585768 1.339928
v 0.488631 6.585768 1.339928
v 0.233183 7.370680 0.555016
v 0.488631 7.370680 0.555016
v 0.233183 7.370680 -0.555016
v 0.488631 7.370680 -0.555016
vn -0.0000 1.0000 -0.0000
vn -0.0000 -0.0000 1.0000
vn -1.0000 -0.0000 -0.0000
vn -0.0000 -1.0000 -0.0000
vn 1.0000 -0.0000 -0.0000
vn -0.0000 -0.0000 -1.0000
vn -0.0000 -0.7071 -0.7071
vn -0.0000 -0.7071 0.7071
vn -0.0000 0.7071 0.7071
vn -0.0000 0.7071 -0.7071
vt 0.625000 0.500000
vt 0.375000 0.500000
vt 0.625000 0.750000
vt 0.375000 0.750000
vt 0.875000 0.500000
vt 0.625000 0.250000
vt 0.125000 0.500000
vt 0.375000 0.250000
vt 0.875000 0.750000
vt 0.625000 1.000000
vt 0.625000 0.000000
vt 0.375000 0.000000
vt 0.375000 1.000000
vt 0.125000 0.750000
vt 1.000000 0.500000
vt 0.000000 0.500000
vt 0.750000 0.490000
vt 1.000000 1.000000
vt 0.250000 0.490000
vt 0.000000 1.000000
vt 0.875000 0.500000
vt 0.919706 0.419706
vt 0.875000 1.000000
vt 0.419706 0.419706
vt 0.750000 0.500000
vt 0.990000 0.250000
vt 0.750000 1.000000
vt 0.490000 0.250000
vt 0.625000 0.500000
vt 0.919706 0.080294
vt 0.625000 1.000000
vt 0.419706 0.080294
vt 0.500000 0.500000
vt 0.750000 0.010000
vt 0.500000 1.000000
vt 0.250000 0.010000
vt 0.375000 0.500000
vt 0.580294 0.080294
vt 0.375000 1.000000
vt 0.080294 0.080294
vt 0.510000 0.250000
vt 0.250000 0.500000
vt 0.010000 0.250000
vt 0.250000 1.000000
vt 0.125000 0.500000
vt 0.580294 0.419706
vt 0.080294 0.419706
vt 0.125000 1.000000
s 0
usemtl Material
f 5/5/1 3/3/1 1/1/1
f 3/3/2 8/13/2 4/4/2
f 7/11/3 6/8/3 8/12/3
f 2/2/4 8/14/4 6/7/4
f 1/1/5 4/4/5 2/2/5
f 5/6/6 2/2/6 6/8/6
f 10/18/6 11/21/6 9/15/6
f 12/23/7 13/25/7 11/21/7
f 14/27/4 15/29/4 13/25/4
f 16/31/8 17/33/8 15/29/8
f 18/35/2 19/37/2 17/33/2
f 20/39/9 21/42/9 19/37/9
f 22/43/5 18/36/5 14/28/5
f 22/44/1 23/45/1 21/42/1
f 24/48/10 9/16/10 23/45/10
f 19/38/3 21/41/3 23/46/3
f 5/5/1 7/9/1 3/3/1
f 3/3/2 7/10/2 8/13/2
f 7/11/3 5/6/3 6/8/3
f 2/2/4 4/4/4 8/14/4
f 1/1/5 3/3/5 4/4/5
f 5/6/6 1/1/6 2/2/6
f 10/18/6 12/23/6 11/21/6
f 12/23/7 14/27/7 13/25/7
f 14/27/4 16/31/4 15/29/4
f 16/31/8 18/35/8 17/33/8
f 18/35/2 20/39/2 19/37/2
f 20/39/9 22/44/9 21/42/9
f 14/28/5 12/24/5 10/19/5
f 10/19/5 24/47/5 14/28/5
f 24/47/5 22/43/5 14/28/5
f 22/43/5 20/40/5 18/36/5
f 18/36/5 16/32/5 14/28/5
f 22/44/1 24/48/1 23/45/1
f 24/48/10 10/20/10 9/16/10
f 23/46/3 9/17/3 15/30/3
f 9/17/3 11/22/3 15/30/3
f 11/22/3 13/26/3 15/30/3
f 15/30/3 17/34/3 23/46/3
f 17/34/3 19/38/3 23/46/3
